<svg width="945" height="945" viewBox="0 0 945 945" fill="none" xmlns="http://www.w3.org/2000/svg">
<path d="M558.92 858.29C577.1 857.1 589.4 868.53 590.73 887.84C592.03 906.79 583.92 920.7 569.37 924.49C560.75 926.74 553.91 926.04 546.22 922.11C541 919.45 537.67 915.86 534.35 909.3C531.7 904.07 531.5 902.83 531.5 892.08C531.5 882.19 531.85 879.66 533.87 874.75C537.98 864.75 546.58 859.1 558.92 858.29ZM317.45 873.68C322.97 862.77 333.75 857.19 347.1 858.31C355.859 859.04 362.5 862.42 367.31 868.59C372.33 875.03 373.5 879.56 373.5 892.5C373.5 902.53 373.25 904 370.69 909.21C367.36 916.01 360.74 922.16 354.9 923.91C336.931 929.3 321.45 921.89 315.92 905.271C314.16 899.961 313.84 897.09 314.16 889.11C314.5 880.85 314.99 878.56 317.45 873.68ZM132 881.79C132 903.44 132.11 904.801 134.25 909.021C137.23 914.89 141.38 917.19 149.29 917.36C157.02 917.52 161.66 915.12 164.5 909.47C166.29 905.91 166.53 903.11 166.83 882.25L167.16 859H175V880.45C175 892.25 174.51 904.19 173.91 906.99C172.52 913.48 167.75 919.75 161.99 922.65C153.79 926.79 141.73 926.47 134.36 921.91C131.55 920.18 126.661 914.67 126.44 913C126.4 912.72 125.84 910.7 125.19 908.5C124.44 905.94 124.01 896.29 124.01 881.75L124 859H132V881.79ZM52.1699 859.7C54.5492 859.38 56.7986 859.43 57.1797 859.81C57.8097 860.46 79.8995 916.879 81.4297 921.75C82.0797 923.83 81.83 924 78.0303 924C74.1603 924 73.8303 923.76 72.1104 919.75C71.1104 917.41 69.5198 912.87 68.5898 909.66C67.2899 905.21 66.5301 903.97 65.3701 904.41C64.5201 904.74 58.1399 905 51.1699 905H38.5L34.9902 914.25L31.4902 923.5L27.2402 923.81L22.9795 924.12L25.1201 918.81C28.26 911.03 31.03 903.85 32 901C32.47 899.62 33.7403 896.25 34.8203 893.5C35.9003 890.75 38.7996 883.33 41.2695 877C43.7395 870.67 46.2298 864.33 46.7998 862.89C47.6298 860.81 48.7101 860.17 52.1699 859.7ZM428.118 886.567C428.871 887.5 429.754 886.873 429.96 885.16C429.94 890.15 429.96 896.98 430 906.25L430.08 924H426.71C424.85 924 423.03 923.7 422.67 923.33C422.45 923.12 422.26 917.91 422.13 910.07C422.222 912.942 422.375 914.908 422.627 916.221C422.053 913.217 422 906.8 422 893.95C422 892.102 422.004 890.395 422.007 888.819C422.005 889.84 422.001 890.916 422 892.05V858.9L434.49 859.5L442.99 886.23C447.67 900.94 451.93 912.829 452.46 912.66C453.31 912.4 461.29 889.64 463.92 880C464.45 878.08 466.21 872.67 467.83 868L470.79 859.5L476.79 859.21L482.79 858.91L482.89 881.05C482.867 880.157 482.84 879.357 482.809 878.641C482.954 882.02 483 887.267 483 895.26C483 902.747 482.976 907.758 482.865 911.146C482.933 909.09 482.972 906.435 482.99 902.99L483.08 924H475V897.5C475 882.926 474.65 871.009 474.23 871C473.81 871 470.17 881.01 466.15 893.25C457.61 919.21 456.44 923.39 454.3 923.96C453.89 924.08 453.45 924.05 452.91 924.03C452.64 924.01 452.35 924 452.04 924H448.34L443.7 909.75C441.14 901.91 437.37 890.21 435.32 883.75C433.27 877.29 431.24 872 430.8 872C430.26 872 430.02 873.927 429.96 883.482C429.986 883.74 430 884.038 430 884.38C430 886.66 428.974 887.623 428.118 886.567ZM271.81 862.73L271.5 866.5L262.21 866.75C262.444 866.656 262.649 866.535 262.821 866.392C261.529 867.468 258.277 867.068 256.719 865.589C257.345 866.184 258.244 866.608 259.18 866.83L250 867.07V924H242V867.07L233.944 866.86C233.047 866.965 231.967 867 230.58 867C228.595 867 227.214 866.924 226.317 866.669L219.5 866.5V859.5L272.12 858.97L271.81 862.73ZM685.5 866.5L678.05 866.69C678.245 866.648 678.433 866.599 678.611 866.55C676.747 867.067 673.867 867.196 672.236 866.83L663 867.07V895.53C663 889.977 662.983 885.912 662.92 882.918C662.986 886.068 663 890.404 663 896.41V924H655V896.62C655 894.193 655.001 892.028 655.005 890.098C655.002 891.734 655 893.539 655 895.53V867.07L646.14 866.83C644.508 867.313 641.448 866.881 641.045 865.818C641.195 866.22 641.72 866.53 642.4 866.74L633.5 866.5L632.88 859H686.12L685.5 866.5ZM749.25 859.15C766.079 859.47 767.88 859.69 772.35 861.89C778.67 865 780.99 868.84 781 876.2C781 883.13 779.89 885.74 775.55 888.99L772.23 891.48L775.7 894.49C779.13 897.46 779.18 897.64 780.04 908.35C780.59 915.239 781.47 920.079 782.47 921.6L784.05 924H779.13C773.17 924 773.12 923.9 772.08 910.68C770.98 896.65 770.9 896.6 752.97 896.15L739 895.81V909.06C739 909.776 738.997 910.44 738.996 911.057C738.997 910.689 739 910.303 739 909.9V924H731V858.81L749.25 859.15ZM840 924H832V859H840V924ZM938 862.43C938 866.4 933.93 871.95 903.75 909.07C901.14 912.28 899 915.38 899 915.96C899 916.65 905.62 917 918.5 917H938V924H888.23L888.12 923.25C888.718 923.473 891.579 923.633 895.574 923.734C891.065 923.62 888.001 923.429 888 923.16C888 923.059 888.021 922.959 888.06 922.86L887.771 920.89C887.371 918.15 888.5 916.309 897.16 905.64C914.88 883.82 917.44 880.63 922.75 873.85C925.638 870.162 927.997 867.004 928 866.82C928 866.7 923.766 866.59 917.623 866.53C915.751 866.823 912.28 867 907.88 867C901.097 867 898.456 866.991 897.566 866.468C897.584 866.478 897.601 866.49 897.62 866.5H890.5V859.5L914.25 859.23L938 858.96V862.43ZM908.119 923.862C909.243 923.861 910.373 923.857 911.497 923.851C910.373 923.857 909.243 923.861 908.119 923.862ZM904.283 923.855C905.471 923.861 906.684 923.863 907.904 923.862C906.684 923.863 905.472 923.861 904.283 923.855ZM900.824 923.827C901.883 923.839 902.977 923.848 904.092 923.854C902.977 923.848 901.883 923.839 900.824 923.827ZM912.053 923.848C913.116 923.84 914.173 923.83 915.214 923.817C914.173 923.83 913.116 923.84 912.053 923.848ZM897.445 923.775C898.31 923.792 899.213 923.806 900.146 923.818C899.213 923.806 898.31 923.792 897.445 923.775ZM915.895 923.81C916.863 923.797 917.815 923.781 918.742 923.764C917.815 923.781 916.863 923.797 915.895 923.81ZM919.574 923.749C919.914 923.742 920.251 923.733 920.583 923.726C920.251 923.733 919.914 923.742 919.574 923.749ZM925.698 923.57C924.854 923.605 923.944 923.636 922.981 923.664C923.944 923.636 924.854 923.605 925.698 923.57ZM925.837 923.564C926.23 923.548 926.608 923.53 926.971 923.513C926.608 923.53 926.23 923.548 925.837 923.564ZM927.163 923.504C927.476 923.488 927.776 923.471 928.063 923.454C927.776 923.471 927.476 923.488 927.163 923.504ZM928.38 923.436C928.651 923.419 928.909 923.401 929.153 923.383C928.909 923.401 928.651 923.419 928.38 923.436ZM929.396 923.366C929.658 923.346 929.902 923.324 930.127 923.303C929.902 923.324 929.658 923.346 929.396 923.366ZM930.274 923.289C930.457 923.271 930.625 923.25 930.779 923.23C930.625 923.25 930.457 923.271 930.274 923.289ZM930.992 923.205C931.011 923.202 931.03 923.199 931.049 923.196C931.03 923.199 931.011 923.202 930.992 923.205ZM888.446 922.325C888.407 922.362 888.371 922.399 888.337 922.437C888.371 922.399 888.407 922.362 888.446 922.325ZM890.462 921.282C889.7 921.523 889.036 921.84 888.591 922.201C889.037 921.842 889.701 921.523 890.462 921.282ZM890.987 921.133C890.884 921.159 890.781 921.187 890.68 921.216C890.781 921.187 890.884 921.159 890.987 921.133ZM891.412 921.033C891.365 921.043 891.319 921.054 891.272 921.064C891.319 921.054 891.365 921.043 891.412 921.033ZM895.03 921.01C894.954 920.989 894.875 920.969 894.796 920.952C894.875 920.97 894.954 920.989 895.03 921.01ZM891.953 920.934C891.905 920.941 891.857 920.95 891.81 920.958C891.857 920.95 891.905 920.941 891.953 920.934ZM894.369 920.878C894.344 920.874 894.318 920.871 894.293 920.868C894.318 920.871 894.344 920.874 894.369 920.878ZM892.504 920.863C892.471 920.867 892.439 920.87 892.406 920.874C892.439 920.87 892.471 920.867 892.504 920.863ZM892.822 920.837C892.748 920.842 892.674 920.848 892.6 920.854C892.674 920.848 892.748 920.842 892.822 920.837ZM894.088 920.847C894.075 920.845 894.062 920.844 894.049 920.843C894.062 920.844 894.075 920.845 894.088 920.847ZM893.104 920.822C893.022 920.825 892.939 920.83 892.855 920.835C892.939 920.83 893.022 920.825 893.104 920.822ZM893.826 920.827C893.812 920.826 893.797 920.826 893.782 920.825C893.797 920.826 893.812 920.826 893.826 920.827ZM893.16 920.82C893.228 920.818 893.295 920.818 893.362 920.817C893.295 920.818 893.228 920.818 893.16 920.82ZM893.593 920.819C893.554 920.818 893.515 920.818 893.477 920.817C893.515 920.818 893.554 920.818 893.593 920.819ZM346.47 865.271C338.05 864.041 331.25 866.96 327.03 873.61C321.08 883 320.52 897.72 325.74 907.95C328.04 912.46 329.46 913.9 334.01 916.3C338.91 918.89 340.18 919.14 345.79 918.63C353.03 917.98 356.38 916.27 360.26 911.24C364.14 906.2 365.46 900.88 365.4 890.5C365.36 882.75 364.98 880.77 362.66 876.25C359.3 869.7 354.5 866.441 346.47 865.271ZM567.021 866.01C556.811 863.26 546.67 867.51 542.05 876.49C539.82 880.83 539.5 882.68 539.5 891.47C539.5 900.36 539.81 902.13 542.22 907.04C545.13 912.96 549.46 916.869 554.43 918.06C572.93 922.49 585.99 906.96 582.1 885.17C580.13 874.13 575.54 868.3 567.021 866.01ZM738.188 918.617C738.189 918.616 738.191 918.614 738.192 918.612C738.191 918.614 738.189 918.616 738.188 918.617ZM424.648 918.562C424.682 918.557 424.716 918.551 424.751 918.545C424.716 918.552 424.682 918.557 424.648 918.562ZM424.876 918.521C424.938 918.506 425.002 918.49 425.066 918.473C425.002 918.49 424.938 918.506 424.876 918.521ZM425.202 918.433C425.254 918.417 425.307 918.401 425.36 918.384C425.307 918.401 425.254 918.417 425.202 918.433ZM481.466 918.404C481.477 918.396 481.488 918.388 481.499 918.379C481.488 918.388 481.477 918.396 481.466 918.404ZM481.571 918.318C481.59 918.302 481.608 918.286 481.626 918.269C481.608 918.286 481.59 918.302 481.571 918.318ZM738.459 918.307C738.463 918.3 738.467 918.294 738.471 918.288C738.467 918.294 738.463 918.3 738.459 918.307ZM481.69 918.204C481.703 918.191 481.715 918.178 481.728 918.164C481.715 918.178 481.703 918.191 481.69 918.204ZM738.539 918.153C738.543 918.145 738.547 918.136 738.551 918.127C738.547 918.136 738.543 918.145 738.539 918.153ZM481.804 918.074C481.812 918.063 481.821 918.051 481.829 918.04C481.821 918.051 481.812 918.063 481.804 918.074ZM738.593 918.019C738.603 917.992 738.614 917.965 738.623 917.937C738.614 917.965 738.603 917.992 738.593 918.019ZM738.655 917.831C738.664 917.8 738.672 917.768 738.681 917.735C738.672 917.768 738.664 917.8 738.655 917.831ZM738.711 917.613C738.72 917.572 738.729 917.529 738.738 917.484C738.729 917.529 738.72 917.572 738.711 917.613ZM482.145 917.465C482.154 917.442 482.163 917.42 482.172 917.396C482.163 917.42 482.154 917.442 482.145 917.465ZM738.761 917.366C738.772 917.305 738.782 917.242 738.792 917.176C738.782 917.242 738.772 917.305 738.761 917.366ZM482.223 917.252C482.232 917.224 482.242 917.195 482.251 917.165C482.242 917.195 482.232 917.224 482.223 917.252ZM738.872 916.474C738.89 916.265 738.905 916.039 738.918 915.793C738.905 916.039 738.89 916.265 738.872 916.474ZM422.761 916.818C422.787 916.92 422.815 917.017 422.843 917.108C422.815 917.017 422.787 916.92 422.761 916.818ZM482.304 916.988C482.312 916.958 482.32 916.928 482.328 916.896C482.32 916.928 482.312 916.958 482.304 916.988ZM422.646 916.312C422.677 916.468 422.708 916.613 422.742 916.75C422.708 916.613 422.676 916.468 422.646 916.312ZM482.373 916.719C482.392 916.638 482.41 916.555 482.428 916.467C482.41 916.555 482.392 916.638 482.373 916.719ZM482.56 915.663C482.521 915.951 482.479 916.209 482.433 916.44C482.479 916.209 482.521 915.951 482.56 915.663ZM482.572 915.568C482.584 915.475 482.596 915.379 482.607 915.28C482.596 915.379 482.584 915.475 482.572 915.568ZM738.935 915.438C738.943 915.235 738.952 915.02 738.958 914.793C738.952 915.02 738.943 915.235 738.935 915.438ZM482.68 914.567C482.688 914.474 482.695 914.379 482.703 914.281C482.695 914.379 482.688 914.474 482.68 914.567ZM738.964 914.567C738.971 914.288 738.976 913.99 738.98 913.673C738.976 913.99 738.971 914.288 738.964 914.567ZM482.761 913.477C482.768 913.362 482.774 913.245 482.78 913.125C482.774 913.245 482.768 913.362 482.761 913.477ZM738.984 913.429C738.988 913.129 738.99 912.812 738.992 912.479C738.99 912.812 738.988 913.129 738.984 913.429ZM482.809 912.569C482.826 912.202 482.842 911.812 482.856 911.396C482.842 911.812 482.826 912.202 482.809 912.569ZM54.6104 871.25C54.0104 869.46 53.1299 868.12 52.6699 868.28C51.5494 868.652 41.1319 896.785 41.8398 897.51C42.1498 897.81 47.1502 897.94 52.9502 897.78C61.6299 897.55 63.4703 897.23 63.3203 896C63.2203 895.17 61.4697 890 59.4297 884.5C57.3897 879 55.2204 873.04 54.6104 871.25ZM655.016 886.517C655.011 887.346 655.008 888.232 655.006 889.177C655.008 888.232 655.011 887.346 655.016 886.517ZM739 877.93C738.999 877.784 738.997 877.641 738.996 877.501C738.999 877.76 739 878.029 739 878.31V889H751.03C764.46 889 768.52 887.9 771.41 883.5C773.79 879.87 773.1 872.66 770.09 869.64C768.14 867.69 766.689 867.47 753.48 867.18L739 866.85V877.93ZM427.932 886.299C427.954 886.336 427.977 886.372 428 886.406C427.977 886.372 427.954 886.336 427.932 886.299ZM427.759 885.974C427.81 886.083 427.863 886.184 427.917 886.275C427.863 886.184 427.81 886.083 427.759 885.974ZM656.79 873.775C655.381 874.231 655.081 875.294 655.018 886.187C655.083 875.309 655.385 874.234 656.785 873.777L656.79 873.775ZM422.021 884.5C422.019 884.977 422.016 885.47 422.014 885.979C422.016 885.47 422.019 884.977 422.021 884.5ZM422.039 882.23C422.036 882.506 422.034 882.787 422.031 883.075C422.034 882.787 422.036 882.506 422.039 882.23ZM429.736 882.591C429.734 882.587 429.733 882.583 429.73 882.579C429.733 882.583 429.734 882.587 429.736 882.591ZM662.912 882.549C662.902 882.093 662.888 881.663 662.875 881.257C662.888 881.663 662.902 882.093 662.912 882.549ZM429.688 882.509C429.672 882.485 429.657 882.463 429.641 882.441C429.657 882.463 429.672 882.485 429.688 882.509ZM429.49 882.289C429.481 882.282 429.472 882.276 429.463 882.27C429.472 882.276 429.481 882.282 429.49 882.289ZM428.447 882.177C428.386 882.189 428.323 882.205 428.257 882.222C428.323 882.205 428.386 882.189 428.447 882.177ZM428.647 882.143C428.609 882.148 428.57 882.155 428.53 882.162C428.57 882.155 428.609 882.148 428.647 882.143ZM429.201 882.156C429.164 882.147 429.125 882.138 429.085 882.133C429.125 882.138 429.164 882.147 429.201 882.156ZM428.838 882.125C428.807 882.126 428.776 882.129 428.744 882.132C428.776 882.129 428.807 882.126 428.838 882.125ZM428.926 882.123C428.966 882.123 429.005 882.126 429.042 882.13C429.005 882.127 428.966 882.123 428.926 882.123ZM662.863 880.865C662.849 880.482 662.832 880.122 662.815 879.783C662.832 880.122 662.849 880.482 662.863 880.865ZM422.07 879.825C422.066 880.104 422.061 880.391 422.057 880.686C422.061 880.391 422.066 880.104 422.07 879.825ZM662.795 879.35C662.787 879.205 662.778 879.064 662.77 878.928C662.778 879.064 662.787 879.205 662.795 879.35ZM662.756 878.718C662.75 878.634 662.743 878.551 662.737 878.471C662.743 878.551 662.75 878.634 662.756 878.718ZM422.108 877.93C422.103 878.14 422.097 878.357 422.093 878.579C422.097 878.357 422.103 878.14 422.108 877.93ZM482.796 878.358C482.778 877.973 482.759 877.613 482.738 877.277C482.759 877.613 482.778 877.973 482.796 878.358ZM738.993 877.277C738.991 877.126 738.989 876.979 738.986 876.836C738.989 876.979 738.991 877.126 738.993 877.277ZM482.731 877.177C482.709 876.819 482.684 876.488 482.657 876.185C482.684 876.488 482.709 876.819 482.731 877.177ZM422.16 876.208C422.154 876.382 422.147 876.562 422.141 876.746C422.147 876.562 422.154 876.382 422.16 876.208ZM662.544 876.684C662.538 876.644 662.531 876.606 662.524 876.567C662.531 876.606 662.538 876.644 662.544 876.684ZM738.979 876.554C738.976 876.428 738.973 876.305 738.969 876.185C738.973 876.305 738.976 876.428 738.979 876.554ZM482.6 875.584C482.609 875.674 482.619 875.767 482.628 875.862C482.619 875.767 482.609 875.674 482.6 875.584ZM738.957 875.845C738.951 875.689 738.943 875.539 738.936 875.395C738.943 875.539 738.951 875.689 738.957 875.845ZM738.93 875.286C738.92 875.119 738.909 874.96 738.897 874.808C738.909 874.96 738.92 875.119 738.93 875.286ZM422.22 874.874C422.214 874.977 422.207 875.081 422.202 875.188C422.207 875.081 422.214 874.977 422.22 874.874ZM738.889 874.692C738.878 874.562 738.865 874.437 738.853 874.317C738.865 874.437 738.878 874.562 738.889 874.692ZM479.97 874.338H479.971H479.97ZM738.84 874.195C738.825 874.064 738.807 873.94 738.79 873.822C738.807 873.94 738.825 874.064 738.84 874.195ZM738.713 873.38C738.693 873.283 738.671 873.193 738.648 873.109C738.671 873.193 738.693 873.283 738.713 873.38ZM482.206 873.587C482.2 873.573 482.194 873.559 482.188 873.545C482.194 873.559 482.2 873.573 482.206 873.587ZM482.106 873.373C482.103 873.367 482.1 873.361 482.097 873.354C482.1 873.361 482.103 873.367 482.106 873.373ZM482.057 873.29C482.044 873.271 482.032 873.254 482.02 873.237C482.032 873.254 482.044 873.271 482.057 873.29ZM481.966 873.173C481.949 873.154 481.932 873.137 481.914 873.121C481.932 873.137 481.949 873.154 481.966 873.173ZM481.717 873.016C481.776 873.031 481.831 873.058 481.885 873.099C481.831 873.058 481.775 873.031 481.717 873.016ZM738.632 873.044C738.61 872.969 738.586 872.9 738.562 872.836C738.586 872.9 738.61 872.969 738.632 873.044ZM481.693 873.01C481.663 873.004 481.631 873 481.6 873C481.631 873 481.663 873.004 481.693 873.01ZM738.135 872.251C738.294 872.321 738.428 872.491 738.54 872.771C738.428 872.491 738.295 872.321 738.135 872.251ZM738.063 872.227C738.05 872.223 738.037 872.222 738.023 872.22C738.037 872.222 738.05 872.223 738.063 872.227ZM423.492 870.639C423.473 870.633 423.454 870.625 423.436 870.62C423.454 870.625 423.473 870.633 423.492 870.639ZM423.123 870.629C423.118 870.631 423.112 870.632 423.106 870.634C423.112 870.632 423.118 870.631 423.123 870.629ZM423.319 870.603C423.335 870.604 423.35 870.607 423.365 870.609C423.35 870.607 423.335 870.604 423.319 870.603ZM423.24 870.604C423.23 870.605 423.219 870.604 423.209 870.605C423.219 870.604 423.23 870.605 423.24 870.604ZM671.87 866.732C671.914 866.746 671.96 866.76 672.007 866.772C671.96 866.76 671.914 866.746 671.87 866.732ZM671.611 866.639C671.666 866.662 671.723 866.684 671.784 866.705C671.723 866.684 671.666 866.662 671.611 866.639ZM671.413 866.542C671.459 866.568 671.507 866.593 671.56 866.616C671.507 866.593 671.459 866.568 671.413 866.542ZM680.313 865.608C680.105 865.992 679.475 866.307 678.634 866.543C679.465 866.31 680.091 866.003 680.306 865.624L680.313 865.608ZM671.301 866.475C671.319 866.487 671.338 866.499 671.357 866.511C671.338 866.499 671.319 866.487 671.301 866.475ZM671.162 866.359C671.177 866.375 671.194 866.39 671.211 866.405C671.194 866.39 671.177 866.375 671.162 866.359ZM262.977 866.243C263.018 866.198 263.057 866.152 263.093 866.104C263.057 866.152 263.018 866.198 262.977 866.243ZM671.113 866.304C671.123 866.316 671.133 866.329 671.145 866.341C671.133 866.329 671.123 866.316 671.113 866.304ZM897.333 866.275C897.344 866.289 897.357 866.302 897.37 866.315C897.357 866.302 897.344 866.289 897.333 866.275ZM671.063 866.23C671.073 866.246 671.082 866.263 671.093 866.278C671.082 866.263 671.073 866.246 671.063 866.23ZM897.27 866.184C897.28 866.202 897.291 866.22 897.304 866.237C897.291 866.22 897.28 866.202 897.27 866.184ZM671.024 866.146C671.032 866.169 671.041 866.191 671.053 866.213C671.041 866.191 671.032 866.169 671.024 866.146ZM263.28 865.75C263.236 865.873 263.176 865.987 263.102 866.092C263.176 865.987 263.237 865.874 263.28 865.75ZM919.104 866.084C919.11 866.078 919.114 866.073 919.118 866.067C919.114 866.073 919.109 866.078 919.104 866.084ZM919.132 866.046C919.141 866.03 919.148 866.016 919.15 866C919.148 866.016 919.14 866.03 919.132 866.046ZM897.173 865.809C897.174 865.836 897.175 865.863 897.178 865.889C897.175 865.863 897.174 865.836 897.173 865.809ZM641.024 865.755C641.027 865.765 641.03 865.776 641.033 865.786C641.03 865.776 641.027 865.765 641.024 865.755ZM897.175 865.666C897.173 865.696 897.172 865.726 897.172 865.755C897.172 865.726 897.173 865.696 897.175 865.666ZM641.006 865.67C641.007 865.675 641.008 865.68 641.009 865.685C641.008 865.68 641.007 865.675 641.006 865.67ZM897.187 865.563C897.184 865.586 897.18 865.608 897.178 865.63C897.18 865.608 897.184 865.586 897.187 865.563ZM256.554 865.42C256.599 865.469 256.646 865.518 256.694 865.565C256.645 865.518 256.599 865.469 256.554 865.42ZM237.552 865.45C237.574 865.433 237.595 865.416 237.617 865.398C237.595 865.416 237.574 865.433 237.552 865.45ZM897.26 865.182C897.24 865.265 897.224 865.344 897.21 865.419C897.224 865.344 897.24 865.264 897.26 865.182ZM224.97 865.351C224.971 865.36 224.972 865.369 224.974 865.378C224.972 865.369 224.971 865.36 224.97 865.351ZM256.408 865.249C256.442 865.291 256.476 865.333 256.512 865.374C256.476 865.333 256.442 865.291 256.408 865.249ZM224.955 865.115C224.955 865.156 224.957 865.197 224.959 865.236C224.957 865.197 224.955 865.156 224.955 865.115ZM256.23 865C256.269 865.062 256.311 865.122 256.355 865.182C256.311 865.122 256.269 865.062 256.23 865ZM897.37 864.75C897.338 864.869 897.308 864.982 897.281 865.089C897.308 864.982 897.338 864.869 897.37 864.75ZM238.12 864.978C238.14 864.96 238.159 864.943 238.179 864.926C238.159 864.943 238.14 864.96 238.12 864.978ZM224.986 864.695C224.979 864.75 224.971 864.804 224.967 864.856C224.972 864.804 224.979 864.75 224.986 864.695ZM238.415 864.71C238.463 864.665 238.512 864.62 238.561 864.574C238.512 864.62 238.463 864.665 238.415 864.71ZM225.032 864.418C225.019 864.483 225.009 864.546 224.999 864.607C225.009 864.546 225.019 864.483 225.032 864.418ZM238.78 864.363C238.9 864.247 239.024 864.126 239.15 864C239.024 864.127 238.9 864.247 238.78 864.363ZM225.355 863.275C225.224 863.656 225.123 863.999 225.056 864.308C225.124 863.999 225.225 863.656 225.355 863.275ZM225.61 862.58C225.524 862.802 225.447 863.014 225.377 863.215C225.447 863.014 225.525 862.802 225.61 862.58ZM29.5801 244.188C29.73 230.402 29.9198 223.147 30.1396 223.21C31.3896 223.63 170.24 362.45 241.71 434.75C272.835 466.235 298.802 491.992 299.43 492C300.05 492 301.4 490.99 302.43 489.75C303.47 488.51 319.21 472.42 337.41 454C355.62 435.58 384.76 406.02 402.17 388.33C419.574 370.646 434.07 356.419 434.39 356.72C434.57 356.91 434.75 367.46 434.86 383.38C434.848 382.567 434.833 381.803 434.818 381.084C434.979 388.912 435 402.177 435 424.63V441.79L435.03 480.37L417.2 498.44C407.39 508.37 393.55 522.57 386.43 530C379.32 537.42 371.02 546.01 368 549.08C364.98 552.15 350.35 567.21 335.5 582.54C320.65 597.86 306.31 612.64 303.63 615.37L298.77 620.33L286.16 607.41C250.423 570.813 117.913 437.023 117.37 437C117.17 437 117 508.77 117 596.5V756H72.9697C103.235 756 110.179 755.807 110.928 754.785C110.172 755.807 103.148 756 72.4199 756C71.6512 756 70.8967 755.998 70.1562 755.998C70.5926 755.998 71.0343 756 71.4805 756C70.9197 756 70.3657 755.998 69.8193 755.998C68.6271 755.997 67.4715 755.997 66.3516 755.995C33.1993 755.976 28.8351 755.744 28.3301 754.42C28.2801 754.29 28.24 753.11 28.21 751H27.71L28.0898 728.5C28.0798 713.98 28.12 694.3 28.21 671.91C28.2871 674.864 28.4504 676.477 28.7256 677.361C28.0741 675.264 28.058 669.064 28.3604 650.63C28.3304 651.96 28.3098 653.24 28.2998 654.45C28.3198 650.09 28.3401 645.66 28.3701 641.17C28.5597 608.256 28.739 558.739 28.8789 506.88C28.6861 485.896 28.9625 461.876 29.7197 451.82C29.349 456.73 29.0911 464.97 28.9502 474.56C28.9902 459.816 29.0091 445.121 29.0391 430.797C28.9415 429.192 28.9499 427.151 29.0498 425.076C29.0698 408.005 29.0896 391.523 29.0996 376.2C29.1096 360.41 29.1204 345.68 29.1504 332.1C29.154 332.144 29.1583 332.188 29.1621 332.231C29.0455 330.915 29 329.132 29 326.73C29 324.264 29.1161 322.081 29.3164 320.423C29.2624 320.866 29.2115 321.347 29.1699 321.86C29.1899 313.46 29.2202 305.55 29.2402 298.14C29.347 305.285 29.5252 310.027 29.7773 312.57C29.3278 308.01 29.1201 296.377 29.1201 276.51C29.1201 260.673 29.2864 249.375 29.5801 244.188ZM481.22 715.672C481.22 703.146 481.25 688.202 481.31 671.72L481.35 674.5L481.24 666C481.194 661.686 481.341 659.361 481.673 659.157C481.534 659.24 481.427 659.69 481.35 660.5C481.39 650.94 481.44 640.96 481.49 630.71L482.15 507.5L527.06 462.75L571.97 418.01L706.74 417.75L841.5 417.5L841.18 336.719C841.154 335.824 841.153 334.816 841.17 333.679L841.11 319.81C841.118 319.868 841.13 319.923 841.14 319.975C841.06 319.53 841.024 318.816 841.021 317.81C841.018 317.278 841.047 316.752 841.1 316.26L841.09 314.75L840.68 212H927.67L928.31 483.13C928.37 506.24 928.42 528.71 928.46 550.18C928.42 530.42 928.37 509.83 928.32 488.7C928.68 634.74 928.73 754.63 928.43 755.12C928.428 755.123 928.423 755.125 928.42 755.128V755.13C928.39 755.18 928.14 755.23 927.7 755.28C927.952 755.251 928.138 755.219 928.26 755.188C926.377 755.636 909.409 756 889.16 756H840.69L841.17 668.74C841.167 668.434 841.162 668.123 841.16 667.81C841.118 662.6 841.152 658.21 841.253 654.858C841.249 654.991 841.244 655.124 841.24 655.26L841.37 631.12L841.38 629.57C841.415 629.705 841.454 629.826 841.491 629.935C841.211 629.133 841.015 627.61 841.03 626.08C841.05 624.187 841.13 623.378 841.41 623.429L842.06 506.25L773.28 506.5C735.45 506.65 674.24 506.82 637.25 506.88L570.01 507L569.846 584.232C569.825 597.978 569.792 614.34 569.75 633.82L569.5 755.5L529.25 755.76C510.221 755.885 500.16 755.927 494.855 755.727C494.959 755.731 495.063 755.736 495.17 755.74C486.2 755.62 481.731 755.37 481.48 754.97C481.341 754.741 481.251 745.414 481.23 729.899C481.21 728.545 481.192 727.076 481.18 725.5C481.155 721.939 481.17 718.604 481.22 715.672ZM494.005 755.689C494.244 755.701 494.495 755.712 494.757 755.723C494.495 755.712 494.244 755.701 494.005 755.689ZM493.158 755.644C493.324 755.654 493.496 755.663 493.675 755.673C493.496 755.663 493.324 755.654 493.158 755.644ZM492.446 755.594C492.552 755.602 492.662 755.609 492.774 755.617C492.662 755.609 492.552 755.602 492.446 755.594ZM491.802 755.537C491.862 755.543 491.923 755.549 491.985 755.555C491.923 755.549 491.862 755.543 491.802 755.537ZM491.206 755.47C491.269 755.478 491.334 755.484 491.4 755.492C491.334 755.484 491.269 755.478 491.206 755.47ZM490.737 755.4C490.767 755.405 490.798 755.409 490.829 755.414C490.798 755.409 490.767 755.405 490.737 755.4ZM490.301 755.316C490.347 755.327 490.396 755.336 490.445 755.346C490.396 755.336 490.347 755.327 490.301 755.316ZM489.967 755.231C490.002 755.242 490.039 755.25 490.076 755.26C490.039 755.25 490.002 755.242 489.967 755.231ZM34.9697 755.213C34.9945 755.219 35.0197 755.226 35.0459 755.231C35.0197 755.226 34.9945 755.219 34.9697 755.213ZM489.685 755.135C489.707 755.144 489.731 755.151 489.755 755.16C489.731 755.151 489.707 755.144 489.685 755.135ZM489.568 755.085C489.573 755.087 489.578 755.09 489.583 755.092C489.578 755.09 489.573 755.087 489.568 755.085ZM489.454 755.026C489.474 755.037 489.494 755.048 489.516 755.059C489.494 755.048 489.474 755.037 489.454 755.026ZM489.281 754.909C489.299 754.924 489.317 754.937 489.337 754.951C489.317 754.937 489.299 754.924 489.281 754.909ZM489.17 754.798C489.176 754.805 489.182 754.812 489.188 754.819C489.182 754.812 489.176 754.805 489.17 754.798ZM489.121 754.732C489.13 754.747 489.141 754.76 489.151 754.773C489.141 754.76 489.13 754.747 489.121 754.732ZM489.036 754.541C489.047 754.58 489.062 754.617 489.079 754.653C489.062 754.617 489.047 754.58 489.036 754.541ZM489.008 754.388C489.009 754.398 489.012 754.409 489.014 754.419C489.012 754.408 489.009 754.396 489.008 754.385V754.388ZM485.02 741.53H485.021H485.02ZM481.723 740.501C481.735 740.517 481.746 740.517 481.759 740.508C481.746 740.517 481.735 740.516 481.723 740.501ZM481.79 740.461C481.808 740.42 481.826 740.355 481.844 740.266C481.825 740.355 481.808 740.42 481.79 740.461ZM481.604 739.961C481.61 740.005 481.615 740.047 481.62 740.086C481.615 740.047 481.61 740.005 481.604 739.961ZM481.883 740.043C481.904 739.897 481.928 739.716 481.95 739.5C481.928 739.716 481.905 739.897 481.883 740.043ZM481.289 712.677C481.281 712.966 481.272 713.262 481.265 713.562C481.272 713.262 481.281 712.966 481.289 712.677ZM481.345 710.879C481.335 711.154 481.327 711.435 481.317 711.723C481.327 711.435 481.335 711.154 481.345 710.879ZM481.451 708.563C481.426 709.029 481.402 709.525 481.38 710.05C481.402 709.525 481.426 709.029 481.451 708.563ZM481.75 705.021C481.65 705.708 481.563 706.702 481.486 707.952C481.563 706.702 481.651 705.708 481.75 705.021ZM481.793 704.74C481.784 704.795 481.776 704.852 481.767 704.911C481.778 704.836 481.789 704.766 481.801 704.699L481.793 704.74ZM481.871 704.362C481.866 704.385 481.859 704.408 481.854 704.433C481.859 704.408 481.866 704.385 481.871 704.362ZM481.943 704.117C481.933 704.143 481.925 704.172 481.915 704.203C481.925 704.172 481.933 704.143 481.943 704.117ZM481.964 704.067C481.96 704.076 481.956 704.085 481.952 704.095C481.968 704.056 481.984 704.025 482 704L481.964 704.067ZM841.789 683.138C841.791 683.137 841.792 683.136 841.794 683.136C841.792 683.136 841.791 683.138 841.789 683.138ZM841.773 683.134C841.775 683.135 841.777 683.135 841.778 683.136C841.777 683.135 841.775 683.135 841.773 683.134ZM841.758 683.118C841.759 683.12 841.761 683.122 841.763 683.124C841.761 683.122 841.759 683.12 841.758 683.118ZM841.725 683.047C841.729 683.06 841.736 683.071 841.74 683.081C841.736 683.071 841.729 683.06 841.725 683.047ZM841.853 683.035C841.857 683.022 841.86 683.006 841.864 682.99C841.86 683.006 841.857 683.022 841.853 683.035ZM841.691 682.92C841.678 682.858 841.665 682.783 841.651 682.696C841.665 682.783 841.678 682.858 841.691 682.92ZM841.569 681.983C841.582 682.121 841.597 682.247 841.609 682.36C841.597 682.247 841.582 682.121 841.569 681.983ZM841.516 681.292C841.525 681.42 841.535 681.541 841.544 681.656C841.535 681.541 841.525 681.42 841.516 681.292ZM841.456 680.331C841.466 680.509 841.476 680.679 841.486 680.842C841.476 680.679 841.466 680.509 841.456 680.331ZM841.41 679.403C841.416 679.541 841.423 679.675 841.43 679.806C841.423 679.675 841.416 679.541 841.41 679.403ZM841.357 678.113C841.365 678.31 841.372 678.501 841.38 678.687C841.372 678.501 841.365 678.31 841.357 678.113ZM29.2998 678.267C29.3092 678.273 29.3176 678.28 29.3271 678.285C29.3177 678.28 29.3092 678.273 29.2998 678.267ZM29.1592 678.157C29.1759 678.173 29.1918 678.189 29.209 678.203C29.1918 678.189 29.1759 678.173 29.1592 678.157ZM29.0449 678.03C29.0616 678.052 29.0775 678.073 29.0947 678.093C29.0775 678.073 29.0616 678.052 29.0449 678.03ZM28.9385 677.869C28.9553 677.899 28.9718 677.927 28.9893 677.953C28.9719 677.927 28.9553 677.899 28.9385 677.869ZM28.8379 677.667C28.8557 677.708 28.874 677.747 28.8926 677.784C28.874 677.747 28.8557 677.708 28.8379 677.667ZM28.749 677.434C28.7673 677.489 28.7873 677.54 28.8066 677.589C28.7874 677.54 28.7673 677.488 28.749 677.434ZM841.313 676.761C841.32 676.982 841.327 677.198 841.334 677.409C841.327 677.198 841.32 676.982 841.313 676.761ZM481.794 659.172C481.787 659.167 481.78 659.163 481.773 659.159C481.78 659.163 481.787 659.167 481.794 659.172ZM481.709 659.145C481.698 659.146 481.687 659.149 481.677 659.154C481.687 659.148 481.698 659.146 481.709 659.145ZM481.725 659.144C481.733 659.144 481.741 659.146 481.749 659.148C481.741 659.146 481.733 659.144 481.725 659.144ZM841.305 653.343C841.295 653.577 841.288 653.819 841.279 654.066C841.288 653.819 841.295 653.578 841.305 653.343ZM841.783 647.975C841.594 648.718 841.446 650.291 841.339 652.585C841.447 650.294 841.596 648.719 841.783 647.975ZM841.88 647.676C841.867 647.704 841.856 647.736 841.844 647.771C841.856 647.736 841.868 647.704 841.88 647.676ZM841.937 647.565C841.93 647.575 841.926 647.586 841.92 647.597C841.926 647.586 841.93 647.575 841.937 647.565ZM841.676 630.336C841.7 630.372 841.724 630.404 841.75 630.43C841.725 630.404 841.7 630.373 841.676 630.336ZM841.534 630.052C841.551 630.095 841.569 630.135 841.587 630.173C841.569 630.135 841.551 630.095 841.534 630.052ZM841.581 623.538C841.678 623.635 841.793 623.792 841.927 624.007C841.793 623.791 841.68 623.633 841.581 623.538ZM841.552 623.51C841.547 623.505 841.541 623.501 841.536 623.497C841.541 623.501 841.547 623.505 841.552 623.51ZM322.77 584.43H322.771H322.77ZM251.02 567.3H251.021H251.02ZM482.007 560.082H482.008H482.007ZM31.4766 548.104H31.4775H31.4766ZM30.4619 543.61C30.4777 543.651 30.4938 543.688 30.5098 543.72C30.4938 543.688 30.4777 543.651 30.4619 543.61ZM30.4199 543.489C30.4262 543.509 30.4331 543.528 30.4395 543.546C30.4331 543.528 30.4262 543.509 30.4199 543.489ZM30.332 543.16C30.3358 543.176 30.339 543.192 30.3428 543.208C30.339 543.192 30.3358 543.176 30.332 543.16ZM30.2295 542.642C30.2484 542.75 30.2679 542.852 30.2871 542.947C30.2678 542.852 30.2484 542.75 30.2295 542.642ZM30.1387 542.06C30.1573 542.193 30.1763 542.319 30.1953 542.438C30.1762 542.319 30.1574 542.193 30.1387 542.06ZM30.0371 541.264C30.0611 541.474 30.0857 541.673 30.1104 541.86C30.0856 541.673 30.0611 541.474 30.0371 541.264ZM29.8848 539.714C29.8885 539.757 29.8927 539.8 29.8965 539.843C29.8927 539.8 29.8885 539.757 29.8848 539.714ZM485.951 537.326C485.888 536.996 485.823 536.689 485.756 536.408C485.823 536.689 485.888 536.996 485.951 537.326ZM29.5166 533.872C29.519 533.922 29.523 533.972 29.5254 534.022C29.523 533.972 29.519 533.922 29.5166 533.872ZM569.651 523.592C569.649 523.474 569.646 523.358 569.644 523.243C569.646 523.358 569.649 523.474 569.651 523.592ZM569.605 521.696C569.602 521.552 569.597 521.409 569.593 521.269C569.597 521.409 569.602 521.552 569.605 521.696ZM569.363 516.062C569.361 516.031 569.359 516.001 569.356 515.971C569.359 516.001 569.361 516.031 569.363 516.062ZM569.305 515.31C569.295 515.192 569.285 515.078 569.274 514.968C569.285 515.078 569.295 515.192 569.305 515.31ZM568.638 511.941C568.627 511.925 568.617 511.91 568.606 511.896C568.617 511.91 568.627 511.925 568.638 511.941ZM568.393 511.677C568.383 511.67 568.375 511.663 568.365 511.657C568.375 511.663 568.383 511.67 568.393 511.677ZM568.161 511.555C568.109 511.535 568.055 511.518 568 511.5C568.055 511.517 568.109 511.535 568.161 511.555ZM292.521 495.81H292.52H292.521ZM282.97 488.426H282.969H282.97ZM168.053 487.279H168.054H168.053ZM168.02 486.81H168.021H168.02ZM311.153 486.274H311.154H311.153ZM168.086 486.108H168.087H168.086ZM312.442 484.898H312.443H312.442ZM313.109 483.995C313.074 483.999 313.038 484 313 484C312.962 484 312.925 484.001 312.89 484.005C312.925 484.001 312.962 484 313 484C313.038 484 313.074 483.999 313.109 483.995ZM313.442 482.898C313.459 482.932 313.479 482.966 313.5 483C313.521 483.034 313.54 483.068 313.557 483.102C313.54 483.068 313.521 483.034 313.5 483C313.479 482.966 313.459 482.932 313.442 482.898ZM152.457 462.562H152.458H152.457ZM151.442 460.181H151.443H151.442ZM338.893 457.516H338.894H338.893ZM345.781 454.152H345.782H345.781ZM29.8477 450.314C29.8111 450.698 29.7749 451.111 29.7402 451.553C29.7748 451.111 29.8112 450.698 29.8477 450.314ZM347.589 449.821H347.59H347.589ZM30.1484 447.982C30.0603 448.441 29.9778 449.053 29.8984 449.804C29.9775 449.053 30.0606 448.441 30.1484 447.982ZM350.26 449.17H350.261H350.26ZM30.2441 447.548C30.2139 447.663 30.1855 447.795 30.1562 447.944C30.1854 447.795 30.214 447.663 30.2441 447.548ZM30.3252 447.288C30.3135 447.32 30.3026 447.354 30.291 447.391C30.3025 447.354 30.3135 447.32 30.3252 447.288ZM30.3887 447.143C30.3815 447.156 30.3743 447.17 30.3672 447.186C30.3743 447.17 30.3815 447.156 30.3887 447.143ZM30.4502 447.05C30.4356 447.066 30.4217 447.087 30.4072 447.11C30.4216 447.087 30.4356 447.066 30.4502 447.05ZM29.7969 433.99C29.8176 433.996 29.8389 434 29.8604 434C29.8388 434 29.8176 433.996 29.7969 433.99ZM29.7568 433.972C29.7672 433.977 29.7765 433.984 29.7871 433.987C29.7765 433.984 29.7672 433.977 29.7568 433.972ZM29.6865 433.924C29.6954 433.932 29.7038 433.94 29.7129 433.946C29.7038 433.94 29.6954 433.932 29.6865 433.924ZM29.6162 433.848C29.6245 433.859 29.6331 433.869 29.6416 433.879C29.6331 433.869 29.6245 433.859 29.6162 433.848ZM29.5527 433.75C29.5599 433.763 29.5679 433.774 29.5752 433.786C29.5679 433.774 29.5599 433.763 29.5527 433.75ZM565.3 223C565.57 223.26 566.069 248.669 566.429 280.459C567.245 283.462 567.191 287.971 566 288.12C566.2 288.1 566.381 287.95 566.521 287.69L566.629 298.39C566.854 299.589 567 301.391 567 303.38C567 305.836 566.948 307.384 566.74 308.386L566.94 326.5C566.919 326.43 566.892 326.361 566.862 326.291C567.073 326.795 567.085 327.302 566.849 327.632C566.889 327.576 566.924 327.516 566.95 327.45L567.17 347.5L482.04 433.5L482.02 410C482.01 397.08 481.74 368.73 481.42 347L481.21 332.326C481.095 331.754 481.022 331.196 481.021 330.72C481.013 329.985 481.098 329.378 481.289 328.875C481.239 329.006 481.196 329.145 481.16 329.29L480.84 307.5L522.81 265C545.887 241.623 565.006 222.734 565.3 223ZM29.2217 432.576C29.2691 432.867 29.3229 433.12 29.3848 433.328C29.3231 433.12 29.2692 432.867 29.2217 432.576ZM29.1348 431.923C29.1494 432.056 29.1658 432.183 29.1826 432.306C29.1657 432.183 29.1496 432.056 29.1348 431.923ZM30.5098 415.64C29.8133 416.959 29.3199 420.496 29.1035 424.11C29.3264 420.493 29.8191 416.961 30.5098 415.64ZM484.941 410.281H484.942H484.941ZM393.02 405.03H393.021H393.02ZM409.27 387.92C409.31 388.076 409.344 388.228 409.371 388.376H409.372C409.345 388.228 409.311 388.076 409.271 387.92H409.27ZM434.776 379.317C434.772 379.165 434.768 379.015 434.764 378.868C434.768 379.015 434.772 379.165 434.776 379.317ZM434.73 377.804C434.725 377.63 434.719 377.461 434.713 377.295C434.719 377.461 434.725 377.63 434.73 377.804ZM434.671 376.235C434.666 376.116 434.66 375.999 434.654 375.885C434.66 375.999 434.666 376.116 434.671 376.235ZM434.607 374.979C434.604 374.915 434.6 374.85 434.597 374.787C434.6 374.85 434.604 374.915 434.607 374.979ZM434.54 373.938C434.535 373.864 434.53 373.791 434.524 373.72C434.53 373.791 434.535 373.864 434.54 373.938ZM434.45 372.892C434.441 372.805 434.431 372.721 434.422 372.639C434.431 372.721 434.441 372.805 434.45 372.892ZM434.286 371.642C434.266 371.523 434.245 371.411 434.224 371.308C434.245 371.411 434.266 371.523 434.286 371.642ZM434.211 371.245C434.184 371.121 434.156 371.008 434.127 370.905C434.156 371.008 434.184 371.121 434.211 371.245ZM433.964 370.443C433.956 370.426 433.947 370.41 433.939 370.394C433.947 370.41 433.956 370.426 433.964 370.443ZM433.896 370.312C433.893 370.306 433.89 370.3 433.887 370.295C433.89 370.3 433.893 370.306 433.896 370.312ZM433.432 369.91C433.429 369.91 433.427 369.909 433.425 369.908C433.427 369.909 433.429 369.91 433.432 369.91ZM30.9385 354.756H30.9375H30.9385ZM486.377 343.652H486.378H486.377ZM844.883 343.544C844.973 343.557 845.066 343.57 845.16 343.58C845.066 343.57 844.973 343.557 844.883 343.544ZM844.59 343.497C844.647 343.507 844.704 343.516 844.763 343.525C844.704 343.516 844.647 343.507 844.59 343.497ZM844.338 343.445C844.385 343.456 844.433 343.466 844.481 343.476C844.433 343.466 844.385 343.456 844.338 343.445ZM844.118 343.391C844.146 343.398 844.174 343.406 844.202 343.413C844.174 343.406 844.146 343.398 844.118 343.391ZM843.513 343.182C843.64 343.238 843.775 343.287 843.915 343.332C843.775 343.287 843.64 343.238 843.513 343.182ZM843.062 342.938C842.17 342.352 841.653 341.313 841.389 339.482C841.651 341.316 842.167 342.353 843.062 342.938ZM841.3 338.74C841.305 338.796 841.312 338.851 841.317 338.905C841.312 338.851 841.305 338.796 841.3 338.74ZM482.733 336.165C482.749 336.171 482.764 336.174 482.778 336.174C482.764 336.173 482.749 336.171 482.733 336.165ZM481.494 333.485C481.88 334.84 482.412 336.03 482.725 336.162C482.413 336.024 481.881 334.836 481.494 333.485ZM482.91 336.05C482.912 336.045 482.914 336.04 482.916 336.035C482.914 336.04 482.912 336.045 482.91 336.05ZM30.3389 335.563C30.3512 335.57 30.3634 335.578 30.376 335.584C30.3634 335.578 30.3513 335.57 30.3389 335.563ZM30.2266 335.494C30.2323 335.498 30.2383 335.502 30.2441 335.506C30.2383 335.502 30.2323 335.498 30.2266 335.494ZM29.8662 335.12C29.8794 335.139 29.8927 335.158 29.9062 335.177C29.8927 335.158 29.8794 335.14 29.8662 335.12ZM29.7764 334.975C29.792 335.002 29.8081 335.029 29.8242 335.055C29.8081 335.029 29.7919 335.002 29.7764 334.975ZM29.6807 334.786C29.6986 334.825 29.7175 334.863 29.7363 334.899C29.7176 334.863 29.6986 334.825 29.6807 334.786ZM29.5869 334.557C29.6 334.592 29.6123 334.627 29.626 334.661C29.6124 334.627 29.6 334.592 29.5869 334.557ZM29.1689 332.312C29.2546 333.255 29.3809 333.953 29.5547 334.465C29.3818 333.954 29.2559 333.255 29.1689 332.312ZM481.368 333.013C481.395 333.12 481.422 333.226 481.451 333.332C481.422 333.226 481.395 333.12 481.368 333.013ZM481.386 328.65C481.361 328.702 481.339 328.756 481.316 328.811C481.339 328.756 481.361 328.702 481.386 328.65ZM481.52 328.402C481.484 328.462 481.45 328.523 481.418 328.586C481.45 328.523 481.484 328.462 481.52 328.402ZM481.652 328.203C481.613 328.256 481.576 328.31 481.541 328.366C481.576 328.31 481.613 328.256 481.652 328.203ZM481.828 327.99C481.784 328.039 481.741 328.09 481.7 328.142C481.741 328.09 481.783 328.039 481.828 327.99ZM566.17 327.99C566.194 327.988 566.217 327.983 566.24 327.979C566.217 327.983 566.194 327.988 566.17 327.99ZM482.024 327.794C481.962 327.85 481.904 327.908 481.848 327.969C481.904 327.909 481.962 327.85 482.024 327.794ZM566.322 327.965C566.345 327.96 566.368 327.953 566.39 327.946C566.368 327.953 566.345 327.96 566.322 327.965ZM566.47 327.919C566.485 327.913 566.501 327.906 566.516 327.899C566.501 327.906 566.485 327.913 566.47 327.919ZM566.595 327.859C566.609 327.851 566.622 327.844 566.636 327.835C566.623 327.844 566.609 327.851 566.595 327.859ZM566.694 327.792C566.712 327.778 566.729 327.765 566.745 327.75C566.729 327.765 566.712 327.778 566.694 327.792ZM566.779 327.715C566.796 327.697 566.813 327.679 566.828 327.659C566.813 327.679 566.796 327.697 566.779 327.715ZM482.947 327.214C482.68 327.333 482.444 327.468 482.236 327.622C482.444 327.468 482.68 327.333 482.947 327.214ZM483.038 327.174C483.016 327.183 482.994 327.193 482.972 327.203C483.061 327.164 483.154 327.126 483.25 327.09L483.038 327.174ZM566.638 325.869C566.721 325.996 566.791 326.127 566.849 326.259C566.791 326.127 566.721 325.996 566.638 325.869ZM566.533 325.72C566.507 325.685 566.479 325.651 566.451 325.617C566.479 325.651 566.507 325.685 566.533 325.72ZM566.41 325.567C566.396 325.551 566.38 325.535 566.365 325.519C566.38 325.535 566.396 325.551 566.41 325.567ZM566.29 325.438C566.277 325.424 566.263 325.411 566.249 325.397C566.263 325.411 566.277 325.424 566.29 325.438ZM566.175 325.325C566.155 325.307 566.134 325.291 566.114 325.273C566.134 325.291 566.155 325.307 566.175 325.325ZM565.898 325.105C565.89 325.1 565.881 325.095 565.872 325.089C565.881 325.095 565.89 325.1 565.898 325.105ZM841.146 320.019C841.223 320.415 841.334 320.579 841.494 320.535C841.335 320.577 841.222 320.412 841.146 320.019ZM841.638 320.452C841.592 320.49 841.55 320.517 841.511 320.53C841.55 320.516 841.592 320.491 841.638 320.452ZM29.3779 319.946C29.3617 320.062 29.3464 320.181 29.3311 320.303C29.3463 320.181 29.3618 320.062 29.3779 319.946ZM29.4834 319.277C29.4656 319.379 29.4486 319.483 29.4316 319.591C29.4485 319.483 29.4657 319.379 29.4834 319.277ZM485.02 318.19H485.021H485.02ZM29.6836 318.331C29.6548 318.441 29.6269 318.557 29.5996 318.681C29.6269 318.557 29.6548 318.441 29.6836 318.331ZM29.8018 317.93C29.7644 318.04 29.7286 318.162 29.6934 318.293C29.7285 318.162 29.7645 318.04 29.8018 317.93ZM30.0107 317.443C30.0037 317.456 29.9972 317.469 29.9902 317.481C29.9972 317.469 30.0037 317.456 30.0107 317.443ZM30.0859 317.327C30.0773 317.339 30.0691 317.351 30.0605 317.364C30.0691 317.351 30.0773 317.339 30.0859 317.327ZM841.356 314.791C841.347 314.828 841.337 314.865 841.328 314.903C841.337 314.865 841.347 314.828 841.356 314.791ZM30.1592 314.679C30.1619 314.684 30.1643 314.689 30.167 314.694C30.1643 314.689 30.1619 314.684 30.1592 314.679ZM30.0742 314.46C30.092 314.518 30.1116 314.569 30.1299 314.613C30.1115 314.569 30.092 314.519 30.0742 314.46ZM841.892 313.59C841.726 313.758 841.574 314.068 841.445 314.477C841.575 314.068 841.727 313.758 841.892 313.59ZM841.938 313.545C841.927 313.554 841.916 313.565 841.905 313.575C841.916 313.564 841.927 313.554 841.938 313.545ZM29.8496 313.217C29.8611 313.309 29.8721 313.397 29.8838 313.481C29.8721 313.397 29.861 313.309 29.8496 313.217ZM111.02 312.32H111.021H111.02ZM565.49 310.134C565.502 310.129 565.514 310.123 565.526 310.118C565.514 310.123 565.502 310.129 565.49 310.134ZM565.639 310.067C565.644 310.065 565.649 310.062 565.654 310.06C565.649 310.062 565.644 310.065 565.639 310.067ZM566.436 297.577C566.426 297.547 566.417 297.518 566.408 297.49C566.418 297.518 566.426 297.547 566.436 297.577ZM566.362 297.362C566.348 297.323 566.332 297.287 566.317 297.252C566.333 297.287 566.347 297.323 566.362 297.362ZM566.271 297.152C566.265 297.139 566.258 297.126 566.251 297.113C566.258 297.126 566.265 297.139 566.271 297.152ZM566.05 296.893C566.098 296.913 566.144 296.956 566.19 297.019C566.144 296.955 566.098 296.912 566.05 296.893ZM519.979 276.87H519.98H519.979ZM29.7021 242.466C29.691 242.587 29.6807 242.716 29.6699 242.853C29.6808 242.716 29.691 242.587 29.7021 242.466ZM29.8184 241.51C29.8008 241.614 29.7825 241.735 29.7656 241.871C29.7825 241.735 29.8009 241.615 29.8184 241.51ZM29.8789 241.208C29.8689 241.245 29.8594 241.287 29.8496 241.334C29.8594 241.287 29.869 241.245 29.8789 241.208ZM29.998 240.997C30.0047 240.998 30.0109 241 30.0176 241.005C30.0109 241.001 30.0046 240.998 29.998 240.997ZM29.9902 240.998C29.9865 240.999 29.9832 241 29.9795 241.002C29.9832 241 29.9865 240.999 29.9902 240.998ZM888.569 922.218C888.526 922.253 888.485 922.289 888.446 922.325C888.485 922.289 888.526 922.253 888.569 922.218ZM738.799 917.125C738.811 917.039 738.823 916.949 738.834 916.854C738.823 916.949 738.811 917.039 738.799 917.125ZM738.838 916.82C738.848 916.728 738.858 916.631 738.867 916.529C738.858 916.631 738.848 916.727 738.838 916.82ZM427.66 885.75C427.688 885.817 427.716 885.882 427.744 885.943C427.716 885.882 427.688 885.817 427.66 885.75ZM738.783 873.77C738.763 873.634 738.74 873.509 738.716 873.393C738.74 873.509 738.762 873.634 738.783 873.77ZM738.135 872.251C738.116 872.243 738.096 872.236 738.076 872.23C738.096 872.236 738.116 872.243 738.135 872.251ZM671.219 866.412C671.24 866.431 671.264 866.448 671.288 866.466C671.264 866.448 671.24 866.43 671.219 866.412ZM262.832 866.382C262.881 866.34 262.927 866.297 262.97 866.251C262.927 866.297 262.881 866.34 262.832 866.382ZM671.012 866.097C671.015 866.113 671.019 866.13 671.024 866.146C671.019 866.13 671.015 866.113 671.012 866.097ZM897.214 866.061C897.222 866.086 897.232 866.111 897.243 866.135C897.232 866.111 897.222 866.086 897.214 866.061ZM897.214 866.061C897.212 866.054 897.208 866.047 897.206 866.04C897.208 866.047 897.212 866.054 897.214 866.061ZM29.584 244.125C29.5826 244.15 29.5815 244.175 29.5801 244.2C29.5801 244.196 29.58 244.192 29.5801 244.188C29.5813 244.167 29.5828 244.146 29.584 244.125ZM481.221 715.604C481.22 715.632 481.22 715.662 481.22 715.69C481.22 715.684 481.22 715.678 481.22 715.672C481.22 715.649 481.22 715.626 481.221 715.604ZM489.372 754.977C489.388 754.987 489.406 754.997 489.424 755.008C489.406 754.997 489.388 754.987 489.372 754.977ZM489.225 754.858C489.242 754.876 489.261 754.892 489.281 754.909C489.261 754.892 489.242 754.876 489.225 754.858ZM489.085 754.667C489.092 754.682 489.101 754.696 489.109 754.711C489.101 754.696 489.092 754.682 489.085 754.667ZM481.771 740.496C481.775 740.491 481.779 740.485 481.783 740.477C481.779 740.484 481.775 740.491 481.771 740.496ZM841.633 682.563C841.639 682.611 841.645 682.655 841.651 682.696C841.645 682.655 841.639 682.611 841.633 682.563ZM841.691 682.92C841.698 682.948 841.705 682.973 841.711 682.996C841.705 682.973 841.698 682.948 841.691 682.92ZM841.825 647.825C841.811 647.871 841.797 647.92 841.783 647.975C841.797 647.92 841.811 647.871 841.825 647.825ZM841.615 630.23C841.635 630.268 841.653 630.302 841.673 630.332C841.653 630.302 841.634 630.268 841.615 630.23ZM841.34 339.108C841.355 339.237 841.371 339.361 841.389 339.482C841.371 339.361 841.355 339.237 841.34 339.108ZM843.275 343.064C843.339 343.099 843.404 343.131 843.472 343.162C843.405 343.131 843.339 343.099 843.275 343.064ZM843.165 343.004L843.275 343.064C843.202 343.025 843.131 342.983 843.062 342.938C843.097 342.96 843.13 342.983 843.165 343.004ZM482.222 327.634C482.153 327.685 482.087 327.738 482.024 327.794C482.087 327.738 482.153 327.685 482.222 327.634ZM566.617 325.838C566.59 325.798 566.562 325.759 566.533 325.72C566.562 325.759 566.59 325.798 566.617 325.838ZM841.754 320.337C841.783 320.303 841.812 320.264 841.844 320.223C841.812 320.264 841.783 320.303 841.754 320.337ZM29.5801 318.764C29.5689 318.816 29.5607 318.87 29.5498 318.924C29.5606 318.87 29.569 318.816 29.5801 318.764ZM29.9004 317.671C29.8671 317.749 29.8336 317.835 29.8018 317.93C29.8336 317.835 29.8671 317.749 29.9004 317.671ZM30.0254 314.274C30.0407 314.338 30.0556 314.397 30.0713 314.449C30.0556 314.397 30.0407 314.338 30.0254 314.274ZM29.9492 313.904C29.951 313.914 29.9533 313.924 29.9551 313.934C29.9533 313.924 29.951 313.914 29.9492 313.904ZM566.05 296.893C566.033 296.886 566.017 296.881 566 296.88C566.017 296.882 566.033 296.886 566.05 296.893ZM29.7461 242.029C29.7352 242.126 29.7254 242.228 29.7148 242.338C29.7254 242.228 29.7353 242.126 29.7461 242.029Z" fill="white"/>
</svg>
